# xmcd
#
# Track frame offsets:
#	150
#	17177
#	28900
#	41030
#	58432
#	70740
#	83330
#	94077
#	105345
#	119250
#	131427
#
# Disc length: 2029 seconds
#
# Revision: 0
# Processed by: cddbd v1.4PL0 Copyright (c) Steve Scherf et al.
# Submitted via: EasyCDDAExtractor 4.6.9.1
#
DISCID=8d07eb0b
DTITLE=Hank Williams jr. - The Hits
DYEAR=1987
DGENRE=Country
TTITLE0=sati sheets
TTITLE1=i´ve got the right to cry
TTITLE2=cajun baby
TTITLE3=all for the love of sunshine
TTITLE4=eleven roses
TTITLE5=stoned at the jukebox
TTITLE6=i´ll think of something
TTITLE7=honky tonkin
TTITLE8=the kind of woman i got
TTITLE9=country love
TTITLE10=´can´t you see
EXTD=
EXTT0=
EXTT1=
EXTT2=
EXTT3=
EXTT4=
EXTT5=
EXTT6=
EXTT7=
EXTT8=
EXTT9=
EXTT10=
PLAYORDER=
